<svg width="44" height="44" viewBox="0 0 44 44" fill="none" xmlns="http://www.w3.org/2000/svg">
<path d="M22 39C31.3888 39 39 31.3888 39 22C39 12.6112 31.3888 5 22 5C12.6112 5 5 12.6112 5 22C5 31.3888 12.6112 39 22 39Z" fill="#737373"/>
<path d="M24 13V17C24 17.2652 24.1054 17.5196 24.2929 17.7071C24.4804 17.8946 24.7348 18 25 18H29" stroke="#A6A6A6" stroke-width="1.5" stroke-linecap="round" stroke-linejoin="round"/>
<path d="M27 31H17C16.4696 31 15.9609 30.7893 15.5858 30.4142C15.2107 30.0391 15 29.5304 15 29V15C15 14.4696 15.2107 13.9609 15.5858 13.5858C15.9609 13.2107 16.4696 13 17 13H24L29 18V29C29 29.5304 28.7893 30.0391 28.4142 30.4142C28.0391 30.7893 27.5304 31 27 31Z" stroke="#A6A6A6" stroke-width="1.5" stroke-linecap="round" stroke-linejoin="round"/>
<path d="M22 21V27" stroke="#A6A6A6" stroke-width="1.5" stroke-linecap="round" stroke-linejoin="round"/>
<path d="M19 24H25" stroke="#A6A6A6" stroke-width="1.5" stroke-linecap="round" stroke-linejoin="round"/>
</svg>
