<svg width="44" height="44" viewBox="0 0 44 44" fill="none" xmlns="http://www.w3.org/2000/svg">
<path d="M16.5 5.5H7.33333C6.32081 5.5 5.5 6.32081 5.5 7.33333V16.5C5.5 17.5125 6.32081 18.3333 7.33333 18.3333H16.5C17.5125 18.3333 18.3333 17.5125 18.3333 16.5V7.33333C18.3333 6.32081 17.5125 5.5 16.5 5.5Z" stroke="#737373" stroke-width="2" stroke-linejoin="round"/>
<path d="M16.5 25.6666H7.33333C6.32081 25.6666 5.5 26.4874 5.5 27.5V36.6666C5.5 37.6792 6.32081 38.5 7.33333 38.5H16.5C17.5125 38.5 18.3333 37.6792 18.3333 36.6666V27.5C18.3333 26.4874 17.5125 25.6666 16.5 25.6666Z" stroke="#737373" stroke-width="2" stroke-linejoin="round"/>
<path d="M36.6666 5.5H27.5C26.4874 5.5 25.6666 6.32081 25.6666 7.33333V16.5C25.6666 17.5125 26.4874 18.3333 27.5 18.3333H36.6666C37.6792 18.3333 38.5 17.5125 38.5 16.5V7.33333C38.5 6.32081 37.6792 5.5 36.6666 5.5Z" stroke="#737373" stroke-width="2" stroke-linejoin="round"/>
<path d="M36.6666 25.6666H27.5C26.4874 25.6666 25.6666 26.4874 25.6666 27.5V36.6666C25.6666 37.6792 26.4874 38.5 27.5 38.5H36.6666C37.6792 38.5 38.5 37.6792 38.5 36.6666V27.5C38.5 26.4874 37.6792 25.6666 36.6666 25.6666Z" stroke="#737373" stroke-width="2" stroke-linejoin="round"/>
</svg>
