<svg width="44" height="44" viewBox="0 0 44 44" fill="none" xmlns="http://www.w3.org/2000/svg">
<path d="M22.0001 23.8333C23.0126 23.8333 23.8334 23.0125 23.8334 22C23.8334 20.9874 23.0126 20.1666 22.0001 20.1666C20.9876 20.1666 20.1667 20.9874 20.1667 22C20.1667 23.0125 20.9876 23.8333 22.0001 23.8333Z" stroke="#A6A6A6" stroke-width="2.75" stroke-linecap="round" stroke-linejoin="round"/>
<path d="M22.0001 36.6667C23.0126 36.6667 23.8334 35.8459 23.8334 34.8333C23.8334 33.8208 23.0126 33 22.0001 33C20.9876 33 20.1667 33.8208 20.1667 34.8333C20.1667 35.8459 20.9876 36.6667 22.0001 36.6667Z" stroke="#A6A6A6" stroke-width="2.75" stroke-linecap="round" stroke-linejoin="round"/>
<path d="M22.0001 11C23.0126 11 23.8334 10.1792 23.8334 9.16671C23.8334 8.15419 23.0126 7.33337 22.0001 7.33337C20.9876 7.33337 20.1667 8.15419 20.1667 9.16671C20.1667 10.1792 20.9876 11 22.0001 11Z" stroke="#A6A6A6" stroke-width="2.75" stroke-linecap="round" stroke-linejoin="round"/>
</svg>
