<svg width="44" height="44" viewBox="0 0 44 44" fill="none" xmlns="http://www.w3.org/2000/svg">
<path d="M14.8867 26.9684L22 19.855L29.1133 26.9684C29.8283 27.6834 30.9833 27.6834 31.6983 26.9684C32.4133 26.2534 32.4133 25.0984 31.6983 24.3834L23.2833 15.9684C23.1137 15.7984 22.9123 15.6635 22.6905 15.5715C22.4687 15.4795 22.2309 15.4321 21.9908 15.4321C21.7507 15.4321 21.5129 15.4795 21.2912 15.5715C21.0694 15.6635 20.8679 15.7984 20.6983 15.9684L12.2833 24.3834C11.5683 25.0984 11.5683 26.2534 12.2833 26.9684C12.9983 27.665 14.1717 27.6834 14.8867 26.9684Z" fill="#737373"/>
</svg>
