<svg width="44" height="44" viewBox="0 0 44 44" fill="none" xmlns="http://www.w3.org/2000/svg">
<path d="M14.8866 17.0316L22 24.1449L29.1133 17.0316C29.8283 16.3166 30.9833 16.3166 31.6983 17.0316C32.4133 17.7466 32.4133 18.9016 31.6983 19.6166L23.2833 28.0316C22.5683 28.7466 21.4133 28.7466 20.6983 28.0316L12.2833 19.6166C12.1133 19.447 11.9785 19.2456 11.8864 19.0238C11.7944 18.802 11.7471 18.5642 11.7471 18.3241C11.7471 18.084 11.7944 17.8462 11.8864 17.6245C11.9785 17.4027 12.1133 17.2012 12.2833 17.0316C12.9983 16.3349 14.1716 16.3166 14.8866 17.0316Z" fill="#737373"/>
</svg>
