<svg width="44" height="44" viewBox="0 0 44 44" fill="none" xmlns="http://www.w3.org/2000/svg">
<path d="M5.5 5.5L38.5 38.5" stroke="#737373" stroke-width="2.75" stroke-linecap="round" stroke-linejoin="round"/>
<path d="M19.4039 19.4095C18.7159 20.0971 18.3292 21.0298 18.3289 22.0024C18.3285 22.9751 18.7146 23.908 19.4021 24.596C20.0896 25.2841 21.0223 25.6708 21.995 25.6711C22.9676 25.6715 23.9006 25.2854 24.5886 24.5979" stroke="#737373" stroke-width="2.75" stroke-linecap="round" stroke-linejoin="round"/>
<path d="M17.1656 9.83578C18.7375 9.3861 20.3651 9.16082 22.0001 9.16661C29.3334 9.16661 35.4439 13.4438 40.3334 21.9999C38.9071 24.4951 37.3781 26.6273 35.7446 28.3946M31.8212 31.8064C28.8311 33.8231 25.5604 34.8333 22.0001 34.8333C14.6667 34.8333 8.55625 30.5561 3.66675 21.9999C6.17658 17.6091 9.00725 14.3458 12.1587 12.2081" stroke="#737373" stroke-width="2.75" stroke-linecap="round" stroke-linejoin="round"/>
</svg>
