<svg width="32" height="32" viewBox="0 0 32 32" fill="none" xmlns="http://www.w3.org/2000/svg">
<path d="M29.105 1.2675H2.895C2.46402 1.2675 2.0507 1.43871 1.74595 1.74345C1.44121 2.0482 1.27 2.46152 1.27 2.8925V29.105C1.27 29.536 1.44121 29.9493 1.74595 30.254C2.0507 30.5588 2.46402 30.73 2.895 30.73H17V19.3225H13.165V14.875H17V11.595C17 7.79 19.325 5.7175 22.72 5.7175C23.8657 5.71342 25.0107 5.77184 26.15 5.8925V9.87H23.8025C21.955 9.87 21.5975 10.7475 21.5975 12.035V14.875H26L25.4275 19.3225H21.5975V30.7325H29.0975C29.5283 30.7318 29.9412 30.5604 30.2458 30.2558C30.5504 29.9512 30.7218 29.5383 30.7225 29.1075V2.895C30.7232 2.46489 30.5533 2.05205 30.2501 1.74698C29.9469 1.44191 29.5351 1.26949 29.105 1.2675Z" fill="#737373"/>
</svg>
