<svg width="44" height="44" viewBox="0 0 44 44" fill="none" xmlns="http://www.w3.org/2000/svg">
<path d="M40.0195 1.7428H3.98071C3.38812 1.7428 2.8198 1.9782 2.40077 2.39723C1.98174 2.81626 1.74634 3.38458 1.74634 3.97717V40.0194C1.74634 40.612 1.98174 41.1803 2.40077 41.5993C2.8198 42.0183 3.38812 42.2537 3.98071 42.2537H23.3751V26.5684H18.102V20.4531H23.3751V15.9431C23.3751 10.7112 26.572 7.86155 31.2401 7.86155C32.8154 7.85593 34.3898 7.93626 35.9563 8.10217V13.5712H32.7285C30.1882 13.5712 29.6966 14.7778 29.6966 16.5481V20.4531H35.7501L34.9629 26.5684H29.6966V42.2572H40.0091C40.6015 42.2563 41.1693 42.0206 41.5881 41.6017C42.0069 41.1829 42.2426 40.6151 42.2435 40.0228V3.98061C42.2444 3.3892 42.0109 2.82156 41.594 2.40208C41.1771 1.98261 40.6109 1.74553 40.0195 1.7428Z" fill="#737373"/>
</svg>
