<svg width="44" height="44" viewBox="0 0 44 44" fill="none" xmlns="http://www.w3.org/2000/svg">
    <g filter="url(#filter0_d_32_162)">
        <path
            d="M9.16667 7.33334H16.5L22 12.8333H34.8333C35.8058 12.8333 36.7384 13.2197 37.4261 13.9073C38.1137 14.5949 38.5 15.5275 38.5 16.5V31.1667C38.5 32.1391 38.1137 33.0718 37.4261 33.7594C36.7384 34.447 35.8058 34.8333 34.8333 34.8333H9.16667C8.19421 34.8333 7.26157 34.447 6.57394 33.7594C5.88631 33.0718 5.5 32.1391 5.5 31.1667V11C5.5 10.0275 5.88631 9.09492 6.57394 8.40729C7.26157 7.71965 8.19421 7.33334 9.16667 7.33334Z"
            stroke="#571D91" stroke-width="2.75" stroke-linecap="round" stroke-linejoin="round"
            shape-rendering="crispEdges" />
    </g>
    <defs>
        <filter id="filter0_d_32_162" x="1.125" y="4.95834" width="41.75" height="36.25"
            filterUnits="userSpaceOnUse" color-interpolation-filters="sRGB">
            <feFlood flood-opacity="0" result="BackgroundImageFix" />
            <feColorMatrix in="SourceAlpha" type="matrix"
                values="0 0 0 0 0 0 0 0 0 0 0 0 0 0 0 0 0 0 127 0" result="hardAlpha" />
            <feOffset dy="2" />
            <feGaussianBlur stdDeviation="1.5" />
            <feComposite in2="hardAlpha" operator="out" />
            <feColorMatrix type="matrix"
                values="0 0 0 0 0.45098 0 0 0 0 0.14902 0 0 0 0 0.74902 0 0 0 1 0" />
            <feBlend mode="normal" in2="BackgroundImageFix" result="effect1_dropShadow_32_162" />
            <feBlend mode="normal" in="SourceGraphic" in2="effect1_dropShadow_32_162" result="shape" />
        </filter>
    </defs>
</svg>