<svg width="44" height="44" viewBox="0 0 44 44" fill="none" xmlns="http://www.w3.org/2000/svg">
<g clip-path="url(#clip0_51_537)">
<path d="M15.3278 1.44721C10.9315 2.97232 7.14013 5.86703 4.51061 9.70616C1.88108 13.5453 0.551983 18.1265 0.718534 22.7768C0.885084 27.4271 2.5385 31.9015 5.43593 35.5426C8.33336 39.1838 12.3221 41.7999 16.8162 43.0066C20.4597 43.9467 24.277 43.988 27.94 43.1269C31.2582 42.3815 34.3261 40.7872 36.8431 38.5C39.4627 36.0468 41.3642 32.926 42.3431 29.4732C43.4067 25.7182 43.596 21.7695 42.8965 17.93H22.4365V26.4172H34.2856C34.0488 27.7709 33.5413 29.0628 32.7935 30.2158C32.0458 31.3687 31.0731 32.3589 29.9337 33.1272C28.487 34.0847 26.8559 34.7287 25.1453 35.0178C23.4298 35.3369 21.6701 35.3369 19.9546 35.0178C18.2158 34.6587 16.5709 33.9411 15.1249 32.9106C12.8017 31.2661 11.0573 28.9298 10.1406 26.235C9.20863 23.4898 9.20863 20.5137 10.1406 17.7685C10.7931 15.8442 11.8718 14.0922 13.2962 12.6431C14.9262 10.9545 16.9899 9.74739 19.2608 9.15435C21.5317 8.56131 23.9221 8.60522 26.1696 9.28127C27.9255 9.82001 29.5311 10.7617 30.8584 12.0313C32.1944 10.7021 33.5282 9.3695 34.8596 8.03346C35.5471 7.31502 36.2965 6.63096 36.9737 5.89534C34.9474 4.00993 32.5691 2.54276 29.975 1.57784C25.2508 -0.137511 20.0817 -0.183609 15.3278 1.44721Z" fill="#fff"/>
</g>
<defs>
<clipPath id="clip0_51_537">
<rect width="44" height="44" fill="white"/>
</clipPath>
</defs>
</svg>
