<svg width="32" height="32" viewBox="0 0 32 32" fill="none" xmlns="http://www.w3.org/2000/svg">
    <g clip-path="url(#clip0_517_1386)">
        <path
            d="M11.1475 1.0525C7.9502 2.16167 5.19286 4.26691 3.28048 7.059C1.3681 9.85109 0.40148 13.1829 0.522607 16.5649C0.643735 19.947 1.84622 23.201 3.95344 25.8492C6.06067 28.4973 8.96155 30.3999 12.23 31.2775C14.8798 31.9612 17.656 31.9913 20.32 31.365C22.7333 30.8229 24.9645 29.6634 26.795 28C28.7002 26.2159 30.0831 23.9462 30.795 21.435C31.5685 18.7041 31.7062 15.8323 31.1975 13.04H16.3175V19.2125H24.935C24.7628 20.197 24.3937 21.1366 23.8499 21.9751C23.306 22.8136 22.5986 23.5338 21.77 24.0925C20.7178 24.7888 19.5316 25.2572 18.2875 25.4675C17.0399 25.6995 15.7601 25.6995 14.5125 25.4675C13.2479 25.2063 12.0516 24.6844 11 23.935C9.31037 22.739 8.04169 21.0398 7.375 19.08C6.69723 17.0835 6.69723 14.919 7.375 12.9225C7.84957 11.523 8.63408 10.2488 9.67 9.19499C10.8555 7.96686 12.3563 7.08899 14.0079 6.65769C15.6594 6.22638 17.3979 6.25832 19.0325 6.75C20.3095 7.1418 21.4772 7.82669 22.4425 8.75C23.4142 7.78333 24.3842 6.81416 25.3525 5.8425C25.8525 5.32 26.3975 4.82249 26.89 4.2875C25.4163 2.91629 23.6866 1.84926 21.8 1.1475C18.3643 -0.10003 14.6049 -0.133556 11.1475 1.0525Z"
            fill="#737373" />
    </g>
    <defs>
        <clipPath id="clip0_517_1386">
            <rect width="32" height="32" fill="white" />
        </clipPath>
    </defs>
</svg>