<svg width="44" height="44" viewBox="0 0 44 44" fill="none" xmlns="http://www.w3.org/2000/svg">
<path d="M22.0001 40.3333C27.0626 40.3333 31.646 38.2812 34.9637 34.9636C38.2814 31.6459 40.3334 27.0625 40.3334 22C40.3334 16.9374 38.2814 12.3541 34.9637 9.03633C31.646 5.71866 27.0626 3.66663 22.0001 3.66663C16.9375 3.66663 12.3542 5.71866 9.03645 9.03633C5.71878 12.3541 3.66675 16.9374 3.66675 22C3.66675 27.0625 5.71878 31.6459 9.03645 34.9636C12.3542 38.2812 16.9375 40.3333 22.0001 40.3333Z" stroke="#737373" stroke-width="2" stroke-linejoin="round"/>
<path d="M22 26.2394V22.5728C25.0376 22.5728 27.5 20.1103 27.5 17.0728C27.5 14.0352 25.0376 11.5728 22 11.5728C18.9624 11.5728 16.5 14.0352 16.5 17.0728" stroke="#737373" stroke-width="2" stroke-linecap="round" stroke-linejoin="round"/>
<path d="M24.0416 32.1978C24.0416 33.3254 23.1275 34.2395 21.9999 34.2395C20.8723 34.2395 19.9583 33.3254 19.9583 32.1978C19.9583 31.0702 20.8723 30.1561 21.9999 30.1561C23.1275 30.1561 24.0416 31.0702 24.0416 32.1978Z" fill="#333333" stroke="#737373" stroke-width="0.5"/>
</svg>
