<svg width="44" height="44" viewBox="0 0 44 44" fill="none" xmlns="http://www.w3.org/2000/svg">
    <g filter="url(#filter0_d_32_152)">
        <path
            d="M9.16675 22V34.8333C9.16675 35.8058 9.55306 36.7384 10.2407 37.4261C10.9283 38.1137 11.861 38.5 12.8334 38.5H31.1667C32.1392 38.5 33.0718 38.1137 33.7595 37.4261C34.4471 36.7384 34.8334 35.8058 34.8334 34.8333V22"
            stroke="#571D91" stroke-width="2.75" stroke-linecap="round" stroke-linejoin="round"
            shape-rendering="crispEdges" />
    </g>
    <path
        d="M16.5 38.5V27.5C16.5 26.5275 16.8863 25.5949 17.5739 24.9073C18.2616 24.2197 19.1942 23.8333 20.1667 23.8333H23.8333C24.8058 23.8333 25.7384 24.2197 26.4261 24.9073C27.1137 25.5949 27.5 26.5275 27.5 27.5V38.5"
        stroke="#571D91" stroke-width="2.75" stroke-linecap="round" stroke-linejoin="round" />
    <path d="M9.16667 22H5.5L22 5.5L38.5 22H34.8333" stroke="#571D91" stroke-width="2.75"
        stroke-linecap="round" stroke-linejoin="round" />
    <defs>
        <filter id="filter0_d_32_152" x="4.79175" y="19.625" width="34.4166" height="25.25"
            filterUnits="userSpaceOnUse" color-interpolation-filters="sRGB">
            <feFlood flood-opacity="0" result="BackgroundImageFix" />
            <feColorMatrix in="SourceAlpha" type="matrix"
                values="0 0 0 0 0 0 0 0 0 0 0 0 0 0 0 0 0 0 127 0" result="hardAlpha" />
            <feOffset dy="2" />
            <feGaussianBlur stdDeviation="1.5" />
            <feComposite in2="hardAlpha" operator="out" />
            <feColorMatrix type="matrix"
                values="0 0 0 0 0.45098 0 0 0 0 0.14902 0 0 0 0 0.74902 0 0 0 1 0" />
            <feBlend mode="normal" in2="BackgroundImageFix" result="effect1_dropShadow_32_152" />
            <feBlend mode="normal" in="SourceGraphic" in2="effect1_dropShadow_32_152" result="shape" />
        </filter>
    </defs>
</svg>