<svg width="44" height="44" viewBox="0 0 44 44" fill="none" xmlns="http://www.w3.org/2000/svg">
<path d="M31.1667 20.1666H12.8334C10.8084 20.1666 9.16675 21.8082 9.16675 23.8333V34.8333C9.16675 36.8583 10.8084 38.5 12.8334 38.5H31.1667C33.1918 38.5 34.8334 36.8583 34.8334 34.8333V23.8333C34.8334 21.8082 33.1918 20.1666 31.1667 20.1666Z" stroke="#737373" stroke-width="2.75" stroke-linecap="round" stroke-linejoin="round"/>
<path d="M22.0001 31.1667C23.0126 31.1667 23.8334 30.3459 23.8334 29.3333C23.8334 28.3208 23.0126 27.5 22.0001 27.5C20.9876 27.5 20.1667 28.3208 20.1667 29.3333C20.1667 30.3459 20.9876 31.1667 22.0001 31.1667Z" stroke="#737373" stroke-width="2.75" stroke-linecap="round" stroke-linejoin="round"/>
<path d="M14.6667 20.1667V12.8333C14.6667 10.8884 15.4394 9.02315 16.8146 7.64788C18.1899 6.27262 20.0552 5.5 22.0001 5.5C23.945 5.5 25.8103 6.27262 27.1855 7.64788C28.5608 9.02315 29.3334 10.8884 29.3334 12.8333V20.1667" stroke="#737373" stroke-width="2.75" stroke-linecap="round" stroke-linejoin="round"/>
</svg>
