<svg width="24" height="24" viewBox="0 0 24 24" fill="none" xmlns="http://www.w3.org/2000/svg">
<g clip-path="url(#clip0_88_2036)">
<path d="M4.80765 18.6698C1.73901 18.6698 -2.02411 12.5002 3.12798 9.75456C2.99877 8.09103 5.03376 2.9228 10.3958 5.07084C12.3662 0.871651 21.8144 1.95375 20.7646 9.72226C24.1239 11.1758 24.8669 17.2001 19.1172 18.6698H4.80765Z" stroke="url(#paint0_linear_88_2036)" stroke-width="1.5"/>
<path d="M13.7874 13.0522L16.1823 14.4044L18.5182 15.7232M13.7874 13.0522V17.9914C13.7874 18.3474 13.9767 18.6767 14.2845 18.8557L18.5182 21.3189M13.7874 13.0522L18.5182 15.7232M13.7874 13.0522L18.0092 10.585C18.3233 10.4015 18.7122 10.403 19.0248 10.5889L19.6122 10.9381L23.2194 13.0104M18.5182 21.3189V15.7232M18.5182 21.3189L22.7303 18.8154C23.0335 18.6352 23.2194 18.3086 23.2194 17.9558V13.0104M18.5182 15.7232L20.6914 14.4692L23.2194 13.0104M18.5182 15.7232L23.2194 13.0104" stroke="#13F24B"/>
</g>
<defs>
<linearGradient id="paint0_linear_88_2036" x1="11.9734" y1="2.64868" x2="23.1872" y2="21.2054" gradientUnits="userSpaceOnUse">
<stop offset="0.184487" stop-color="#9538F2"/>
<stop offset="0.693946" stop-color="#AAAAAA" stop-opacity="0"/>
</linearGradient>
<clipPath id="clip0_88_2036">
<rect width="24" height="24" fill="white"/>
</clipPath>
</defs>
</svg>
