<svg width="700" height="700" viewBox="0 0 700 700" fill="none" xmlns="http://www.w3.org/2000/svg">
    <path
        d="M173.244 516C97.551 516 4.72698 363.504 131.812 295.639C128.625 254.521 178.822 126.775 311.086 179.87C359.689 76.0764 592.745 102.823 566.85 294.841C649.714 330.769 668.04 479.672 526.214 516H173.244Z"
        stroke="url(#paint0_linear_2_24)" stroke-width="20" />
    <path
        d="M394 376.417L453.163 409.882L510.865 442.52M394 376.417V507.138C394 510.696 395.89 513.986 398.964 515.778L510.865 581M394 376.417L510.865 442.52M394 376.417L505.769 310.984C508.913 309.143 512.809 309.158 515.939 311.022L537.89 324.098L627 375.384M510.865 581V442.52M510.865 581L622.116 514.76C625.144 512.956 627 509.692 627 506.167V375.384M510.865 442.52L564.55 411.485L627 375.384M510.865 442.52L627 375.384"
        stroke="#13F24B" stroke-width="15" />
    <defs>
        <linearGradient id="paint0_linear_2_24" x1="350" y1="120" x2="627.44" y2="578.171"
            gradientUnits="userSpaceOnUse">
            <stop offset="0.184487" stop-color="#9538F2" />
            <stop offset="0.693946" stop-color="#AAAAAA" stop-opacity="0" />
        </linearGradient>
    </defs>
</svg>