<svg width="221" height="54" viewBox="0 0 221 54" fill="none" xmlns="http://www.w3.org/2000/svg">
<g clip-path="url(#clip0_60_7589)">
<path d="M13.502 44.9277C5.06326 44.9277 -5.28533 28.3457 8.88291 20.9663C8.52759 16.4952 14.1238 2.60453 28.8694 8.37784C34.288 -2.90833 60.2705 3.26633e-05 57.3835 20.8794C66.6218 24.7862 68.6648 40.9775 52.8533 44.9277H13.502Z" stroke="url(#paint0_linear_60_7589)" stroke-width="4"/>
<path d="M38.1965 29.829L44.7827 33.4634L51.2062 37.0081M38.1965 29.829V38.8325C38.1965 42.4286 40.1274 45.7478 43.2535 47.5254L51.2062 52.0475M38.1965 29.829L51.2062 37.0081M38.1965 29.829L48.1847 24.1244C50.0549 23.0562 52.3525 23.0648 54.2147 24.147V24.147L64.1346 29.7168M51.2062 52.0475V37.0081M51.2062 52.0475L59.1574 47.4288C62.2386 45.6391 64.1346 42.345 64.1346 38.7818V29.7168M51.2062 37.0081L57.1825 33.6376L64.1346 29.7168M51.2062 37.0081L64.1346 29.7168" stroke="#13F24B" stroke-width="2"/>
</g>
<path d="M106.308 19.2955H102.763C102.626 18.5379 102.373 17.8712 102.001 17.2955C101.63 16.7197 101.176 16.2311 100.638 15.8295C100.1 15.428 99.4976 15.125 98.831 14.9205C98.1719 14.7159 97.4711 14.6136 96.7287 14.6136C95.3878 14.6136 94.187 14.9508 93.1264 15.625C92.0734 16.2992 91.2401 17.2879 90.6264 18.5909C90.0204 19.8939 89.7173 21.4848 89.7173 23.3636C89.7173 25.2576 90.0204 26.8561 90.6264 28.1591C91.2401 29.4621 92.0772 30.447 93.1378 31.1136C94.1984 31.7803 95.3916 32.1136 96.7173 32.1136C97.4522 32.1136 98.1491 32.0152 98.8082 31.8182C99.4749 31.6136 100.077 31.3144 100.615 30.9205C101.153 30.5265 101.607 30.0455 101.979 29.4773C102.357 28.9015 102.619 28.2424 102.763 27.5L106.308 27.5114C106.119 28.6553 105.751 29.7083 105.206 30.6705C104.668 31.625 103.975 32.4508 103.126 33.1477C102.286 33.8371 101.323 34.3712 100.24 34.75C99.1567 35.1288 97.9749 35.3182 96.6946 35.3182C94.6795 35.3182 92.884 34.8409 91.3082 33.8864C89.7325 32.9242 88.4901 31.5492 87.581 29.7614C86.6795 27.9735 86.2287 25.8409 86.2287 23.3636C86.2287 20.8788 86.6832 18.7462 87.5923 16.9659C88.5014 15.178 89.7438 13.8068 91.3196 12.8523C92.8954 11.8902 94.687 11.4091 96.6946 11.4091C97.9295 11.4091 99.081 11.5871 100.149 11.9432C101.225 12.2917 102.191 12.8068 103.047 13.4886C103.903 14.1629 104.611 14.9886 105.172 15.9659C105.732 16.9356 106.111 18.0455 106.308 19.2955ZM113.635 11.7273V35H110.237V11.7273H113.635ZM125.558 35.3523C123.922 35.3523 122.494 34.9773 121.274 34.2273C120.054 33.4773 119.107 32.428 118.433 31.0795C117.759 29.7311 117.422 28.1553 117.422 26.3523C117.422 24.5417 117.759 22.9583 118.433 21.6023C119.107 20.2462 120.054 19.1932 121.274 18.4432C122.494 17.6932 123.922 17.3182 125.558 17.3182C127.195 17.3182 128.623 17.6932 129.842 18.4432C131.062 19.1932 132.009 20.2462 132.683 21.6023C133.357 22.9583 133.695 24.5417 133.695 26.3523C133.695 28.1553 133.357 29.7311 132.683 31.0795C132.009 32.428 131.062 33.4773 129.842 34.2273C128.623 34.9773 127.195 35.3523 125.558 35.3523ZM125.57 32.5C126.63 32.5 127.509 32.2197 128.206 31.6591C128.903 31.0985 129.418 30.3523 129.751 29.4205C130.092 28.4886 130.263 27.4621 130.263 26.3409C130.263 25.2273 130.092 24.2045 129.751 23.2727C129.418 22.3333 128.903 21.5795 128.206 21.0114C127.509 20.4432 126.63 20.1591 125.57 20.1591C124.501 20.1591 123.615 20.4432 122.911 21.0114C122.214 21.5795 121.695 22.3333 121.354 23.2727C121.02 24.2045 120.854 25.2273 120.854 26.3409C120.854 27.4621 121.02 28.4886 121.354 29.4205C121.695 30.3523 122.214 31.0985 122.911 31.6591C123.615 32.2197 124.501 32.5 125.57 32.5ZM148.544 27.7614V17.5455H151.953V35H148.612V31.9773H148.43C148.029 32.9091 147.385 33.6856 146.499 34.3068C145.62 34.9205 144.525 35.2273 143.214 35.2273C142.093 35.2273 141.101 34.9811 140.237 34.4886C139.381 33.9886 138.707 33.25 138.214 32.2727C137.73 31.2955 137.487 30.0871 137.487 28.6477V17.5455H140.885V28.2386C140.885 29.428 141.214 30.375 141.874 31.0795C142.533 31.7841 143.389 32.1364 144.442 32.1364C145.078 32.1364 145.711 31.9773 146.339 31.6591C146.976 31.3409 147.502 30.8598 147.919 30.2159C148.343 29.572 148.552 28.7538 148.544 27.7614ZM163.053 35.3409C161.643 35.3409 160.386 34.9811 159.28 34.2614C158.181 33.5341 157.318 32.5 156.689 31.1591C156.068 29.8106 155.757 28.1932 155.757 26.3068C155.757 24.4205 156.071 22.8068 156.7 21.4659C157.337 20.125 158.208 19.0985 159.314 18.3864C160.42 17.6742 161.674 17.3182 163.075 17.3182C164.159 17.3182 165.03 17.5 165.689 17.8636C166.356 18.2197 166.871 18.6364 167.234 19.1136C167.606 19.5909 167.893 20.0114 168.098 20.375H168.303V11.7273H171.7V35H168.382V32.2841H168.098C167.893 32.6553 167.598 33.0795 167.212 33.5568C166.833 34.0341 166.31 34.4508 165.643 34.8068C164.977 35.1629 164.113 35.3409 163.053 35.3409ZM163.803 32.4432C164.78 32.4432 165.606 32.1856 166.28 31.6705C166.962 31.1477 167.477 30.4242 167.825 29.5C168.181 28.5758 168.359 27.5 168.359 26.2727C168.359 25.0606 168.185 24 167.837 23.0909C167.488 22.1818 166.977 21.4735 166.303 20.9659C165.628 20.4583 164.795 20.2045 163.803 20.2045C162.78 20.2045 161.928 20.4697 161.246 21C160.564 21.5303 160.049 22.2538 159.7 23.1705C159.359 24.0871 159.189 25.1212 159.189 26.2727C159.189 27.4394 159.363 28.4886 159.712 29.4205C160.06 30.3523 160.575 31.0909 161.257 31.6364C161.946 32.1742 162.795 32.4432 163.803 32.4432Z" fill="#13F24B"/>
<path d="M178.788 35.2159C178.167 35.2159 177.633 34.9962 177.186 34.5568C176.739 34.1098 176.516 33.572 176.516 32.9432C176.516 32.322 176.739 31.7917 177.186 31.3523C177.633 30.9053 178.167 30.6818 178.788 30.6818C179.41 30.6818 179.944 30.9053 180.391 31.3523C180.838 31.7917 181.061 32.322 181.061 32.9432C181.061 33.3598 180.955 33.7424 180.743 34.0909C180.538 34.4318 180.266 34.7045 179.925 34.9091C179.584 35.1136 179.205 35.2159 178.788 35.2159Z" fill="#571D91"/>
<path d="M185.612 35V17.5455H189.01V35H185.612ZM187.328 14.8523C186.737 14.8523 186.23 14.6553 185.805 14.2614C185.389 13.8598 185.18 13.3826 185.18 12.8295C185.18 12.2689 185.389 11.7917 185.805 11.3977C186.23 10.9962 186.737 10.7955 187.328 10.7955C187.919 10.7955 188.423 10.9962 188.839 11.3977C189.264 11.7917 189.476 12.2689 189.476 12.8295C189.476 13.3826 189.264 13.8598 188.839 14.2614C188.423 14.6553 187.919 14.8523 187.328 14.8523ZM200.933 35.3523C199.297 35.3523 197.869 34.9773 196.649 34.2273C195.429 33.4773 194.482 32.428 193.808 31.0795C193.134 29.7311 192.797 28.1553 192.797 26.3523C192.797 24.5417 193.134 22.9583 193.808 21.6023C194.482 20.2462 195.429 19.1932 196.649 18.4432C197.869 17.6932 199.297 17.3182 200.933 17.3182C202.57 17.3182 203.998 17.6932 205.217 18.4432C206.437 19.1932 207.384 20.2462 208.058 21.6023C208.732 22.9583 209.07 24.5417 209.07 26.3523C209.07 28.1553 208.732 29.7311 208.058 31.0795C207.384 32.428 206.437 33.4773 205.217 34.2273C203.998 34.9773 202.57 35.3523 200.933 35.3523ZM200.945 32.5C202.005 32.5 202.884 32.2197 203.581 31.6591C204.278 31.0985 204.793 30.3523 205.126 29.4205C205.467 28.4886 205.638 27.4621 205.638 26.3409C205.638 25.2273 205.467 24.2045 205.126 23.2727C204.793 22.3333 204.278 21.5795 203.581 21.0114C202.884 20.4432 202.005 20.1591 200.945 20.1591C199.876 20.1591 198.99 20.4432 198.286 21.0114C197.589 21.5795 197.07 22.3333 196.729 23.2727C196.395 24.2045 196.229 25.2273 196.229 26.3409C196.229 27.4621 196.395 28.4886 196.729 29.4205C197.07 30.3523 197.589 31.0985 198.286 31.6591C198.99 32.2197 199.876 32.5 200.945 32.5Z" fill="#9538F2"/>
<defs>
<linearGradient id="paint0_linear_60_7589" x1="33.2078" y1="1.8678" x2="63.0216" y2="52.3477" gradientUnits="userSpaceOnUse">
<stop offset="0.184487" stop-color="#9538F2"/>
<stop offset="0.693946" stop-color="#AAAAAA" stop-opacity="0"/>
</linearGradient>
<clipPath id="clip0_60_7589">
<rect width="66" height="54" fill="white"/>
</clipPath>
</defs>
</svg>
