<svg width="44" height="44" viewBox="0 0 44 44" fill="none" xmlns="http://www.w3.org/2000/svg">
<path d="M12.8333 23.8334H10.9999C8.97487 23.8334 7.33325 25.475 7.33325 27.5V33C7.33325 35.0251 8.97487 36.6667 10.9999 36.6667H12.8333C14.8583 36.6667 16.4999 35.0251 16.4999 33V27.5C16.4999 25.475 14.8583 23.8334 12.8333 23.8334Z" stroke="#737373" stroke-width="2.75" stroke-linecap="round" stroke-linejoin="round"/>
<path d="M33 23.8334H31.1667C29.1416 23.8334 27.5 25.475 27.5 27.5V33C27.5 35.0251 29.1416 36.6667 31.1667 36.6667H33C35.025 36.6667 36.6667 35.0251 36.6667 33V27.5C36.6667 25.475 35.025 23.8334 33 23.8334Z" stroke="#737373" stroke-width="2.75" stroke-linecap="round" stroke-linejoin="round"/>
<path d="M7.33325 27.5V22C7.33325 18.1102 8.87849 14.3797 11.629 11.6291C14.3796 8.87861 18.1101 7.33337 21.9999 7.33337C25.8898 7.33337 29.6203 8.87861 32.3708 11.6291C35.1214 14.3797 36.6666 18.1102 36.6666 22V27.5" stroke="#737373" stroke-width="2.75" stroke-linecap="round" stroke-linejoin="round"/>
</svg>
