<svg width="120" height="80" viewBox="0 0 120 80" fill="none" xmlns="http://www.w3.org/2000/svg">
    <g clip-path="url(#clip0_180_2039)">
        <path
            d="M45.7592 22.2163L45.7604 22.212L70.9516 37.9146L85.9625 31.3409C89.0128 29.9686 92.3019 29.2649 95.625 29.2683C96.1787 29.2683 96.7259 29.2944 97.2704 29.3322C95.4657 22.009 91.6559 15.3889 86.3039 10.2764C80.9519 5.1639 74.2882 1.77915 67.1226 0.533447C59.957 -0.712256 52.5979 0.234725 45.9397 3.25931C39.2815 6.2839 33.6108 11.2559 29.6167 17.571C29.745 17.5694 29.8714 17.561 30 17.561C35.5675 17.5531 41.0261 19.1656 45.7592 22.2163Z"
            fill="#0364B8" />
        <path
            d="M45.7603 22.2119L45.7592 22.2162C41.026 19.1656 35.5674 17.5531 30 17.5609C29.8714 17.5609 29.7448 17.5693 29.6166 17.571C24.1675 17.6412 18.8398 19.2553 14.206 22.2399C9.57215 25.2244 5.80744 29.4666 3.31639 34.5105C0.825343 39.5544 -0.297863 45.2093 0.0674741 50.8676C0.432812 56.5259 2.27288 61.9736 5.38995 66.6254L27.6049 56.8969L37.4803 52.5723L59.4685 42.9432L70.9515 37.9145L45.7603 22.2119Z"
            fill="#0078D4" />
        <path
            d="M97.2704 29.3323C96.7259 29.2945 96.1787 29.2683 95.625 29.2683C92.3019 29.2649 89.0135 29.9713 85.9632 31.3436L70.9515 37.9146L75.3044 40.6279L89.5729 49.522L95.7982 53.4025L117.084 66.6711C119.019 62.9345 120.021 58.7527 120 54.5086C119.978 50.2644 118.934 46.0937 116.963 42.3784C114.991 38.6631 112.155 35.522 108.715 33.2427C105.274 30.9635 101.339 29.6189 97.2704 29.3323Z"
            fill="#1490DF" />
        <path
            d="M95.7981 53.4024L89.5728 49.5219L75.3043 40.6278L70.9514 37.9146L59.4685 42.9432L37.4802 52.5723L27.6049 56.8969L5.38989 66.6254C8.15051 70.7558 11.8307 74.1295 16.1162 76.4585C20.4017 78.7875 25.1652 80.0026 29.9999 79.9999H95.6249C100.025 80.0013 104.343 78.7629 108.122 76.4161C111.9 74.0694 114.997 70.7018 117.084 66.6709L95.7981 53.4024Z"
            fill="#28A8EA" />
    </g>
    <defs>
        <clipPath id="clip0_180_2039">
            <rect width="120" height="80" fill="white" />
        </clipPath>
    </defs>
</svg>