<svg width="44" height="44" viewBox="0 0 44 44" fill="none" xmlns="http://www.w3.org/2000/svg">
<path d="M9.16675 34.8334V40.3334H34.8334V34.8334" stroke="#737373" stroke-width="2" stroke-linecap="round" stroke-linejoin="round"/>
<path d="M34.8334 18.3333V12.8333L27.5001 3.66663H9.16675V18.3333" stroke="#737373" stroke-width="2" stroke-linecap="round" stroke-linejoin="round"/>
<path d="M25.6667 3.66663V12.8333H34.8334" stroke="#737373" stroke-width="2" stroke-linecap="round" stroke-linejoin="round"/>
<path d="M38.5001 18.3334H5.50008C4.48756 18.3334 3.66675 19.1542 3.66675 20.1667V33C3.66675 34.0126 4.48756 34.8334 5.50008 34.8334H38.5001C39.5126 34.8334 40.3334 34.0126 40.3334 33V20.1667C40.3334 19.1542 39.5126 18.3334 38.5001 18.3334Z" stroke="#737373" stroke-width="2" stroke-linejoin="round"/>
<path d="M19.25 22.9166V30.25" stroke="#737373" stroke-width="2" stroke-linecap="round"/>
<path d="M9.16675 22.9166V30.25" stroke="#737373" stroke-width="2" stroke-linecap="round"/>
<path d="M29.3333 30.25V22.9166H33.9166" stroke="#737373" stroke-width="2" stroke-linecap="round" stroke-linejoin="round"/>
<path d="M29.3333 27.5H33.9166" stroke="#737373" stroke-width="2" stroke-linecap="round" stroke-linejoin="round"/>
<path d="M9.16675 22.9166H12.3751C13.6407 22.9166 14.6667 23.9427 14.6667 25.2083C14.6667 26.4739 13.6407 27.5 12.3751 27.5H9.16675" stroke="#737373" stroke-width="2" stroke-linecap="round" stroke-linejoin="round"/>
<path d="M19.25 22.9166H21.0833C23.1083 22.9166 24.75 24.5583 24.75 26.5833C24.75 28.6083 23.1083 30.25 21.0833 30.25H19.25" stroke="#737373" stroke-width="2" stroke-linecap="round" stroke-linejoin="round"/>
<path d="M14.6667 11H18.3334" stroke="#737373" stroke-width="2" stroke-linecap="round"/>
</svg>
