<svg width="44" height="44" viewBox="0 0 44 44" fill="none" xmlns="http://www.w3.org/2000/svg">
<path d="M22.9167 37.5833H34.8334V31.1666" stroke="#737373" stroke-width="2" stroke-linecap="round" stroke-linejoin="round"/>
<path d="M22.9167 6.41663H34.8334V12.8333" stroke="#737373" stroke-width="2" stroke-linecap="round" stroke-linejoin="round"/>
<path d="M22.9167 31.3896V40.3333L9.16675 35.4004V31.1666" stroke="#737373" stroke-width="2" stroke-linecap="round" stroke-linejoin="round"/>
<path d="M22.9167 12.8085V3.66663L9.16675 8.59944V12.8085" stroke="#737373" stroke-width="2" stroke-linecap="round" stroke-linejoin="round"/>
<path d="M38.5001 12.8334H5.50008C4.48756 12.8334 3.66675 13.6542 3.66675 14.6667V29.3334C3.66675 30.3459 4.48756 31.1667 5.50008 31.1667H38.5001C39.5126 31.1667 40.3334 30.3459 40.3334 29.3334V14.6667C40.3334 13.6542 39.5126 12.8334 38.5001 12.8334Z" stroke="#737373" stroke-width="2" stroke-linecap="round" stroke-linejoin="round"/>
<path d="M9.16675 17.4166V26.5833" stroke="#737373" stroke-width="2" stroke-linecap="round"/>
<path d="M19.25 17.4166V26.5833" stroke="#737373" stroke-width="2" stroke-linecap="round"/>
<path d="M32.0833 18.3334V25.6667" stroke="#737373" stroke-width="2" stroke-linecap="round" stroke-linejoin="round"/>
<path d="M29.3333 18.3334H32.0833H34.8333" stroke="#737373" stroke-width="2" stroke-linecap="round" stroke-linejoin="round"/>
<path d="M9.16675 17.4166H11.9167C13.4356 17.4166 14.6667 18.6478 14.6667 20.1666C14.6667 21.6855 13.4356 22.9166 11.9167 22.9166H9.16675" stroke="#737373" stroke-width="2" stroke-linecap="round" stroke-linejoin="round"/>
<path d="M19.25 17.4166H22C23.5188 17.4166 24.75 18.6478 24.75 20.1666C24.75 21.6855 23.5188 22.9166 22 22.9166H19.25" stroke="#737373" stroke-width="2" stroke-linecap="round" stroke-linejoin="round"/>
</svg>
