<svg width="44" height="44" viewBox="0 0 44 44" fill="none" xmlns="http://www.w3.org/2000/svg">
<g clip-path="url(#clip0_51_540)">
<path d="M13.8374 43.8752C30.4423 43.8752 39.5221 27.0462 39.5221 12.4554C39.5221 11.9776 39.5221 11.5008 39.4963 11.0268C41.2635 9.46377 42.7891 7.52743 44.0001 5.30921C42.3535 6.20365 40.6069 6.78906 38.817 7.04962C40.7008 5.66774 42.1108 3.49662 42.7836 0.939805C41.0112 2.22646 39.0721 3.13293 37.0498 3.6214C34.2531 -0.0175385 29.807 -0.909226 26.2055 1.4489C22.6058 3.80702 20.7461 8.82577 21.6684 13.6922C14.4108 13.2478 7.64716 9.05299 3.06463 2.15531C0.664569 7.19812 1.88626 13.6548 5.85141 16.8987C4.42554 16.8396 3.03026 16.3642 1.78416 15.5131V15.654C1.78416 20.9041 4.80435 25.4296 9.00979 26.4794C7.69464 26.9215 6.28192 26.9861 4.93188 26.6661C6.11335 31.1671 9.50272 34.2526 13.3658 34.3413C10.1672 37.4069 6.21819 39.0679 2.15369 39.0576C1.43388 39.0576 0.714068 39.006 -0.000244141 38.9042C4.12751 42.1468 8.93038 43.8683 13.8371 43.8618" fill="#737373"/>
</g>
<defs>
<clipPath id="clip0_51_540">
<rect width="44" height="44" fill="white"/>
</clipPath>
</defs>
</svg>
