<svg width="44" height="44" viewBox="0 0 44 44" fill="none" xmlns="http://www.w3.org/2000/svg">
<path d="M9.16675 34.8334V40.3334H34.8334V34.8334" stroke="#737373" stroke-width="2" stroke-linecap="round" stroke-linejoin="round"/>
<path d="M34.8334 18.3333V12.8333L27.5001 3.66663H9.16675V18.3333" stroke="#737373" stroke-width="2" stroke-linecap="round" stroke-linejoin="round"/>
<path d="M25.6667 3.66663V12.8333H34.8334" stroke="#737373" stroke-width="2" stroke-linecap="round" stroke-linejoin="round"/>
<path d="M14.6667 11H18.3334" stroke="#737373" stroke-width="2" stroke-linecap="round"/>
<path d="M38.5001 18.3334H5.50008C4.48756 18.3334 3.66675 19.1542 3.66675 20.1667V33C3.66675 34.0126 4.48756 34.8334 5.50008 34.8334H38.5001C39.5126 34.8334 40.3334 34.0126 40.3334 33V20.1667C40.3334 19.1542 39.5126 18.3334 38.5001 18.3334Z" stroke="#737373" stroke-width="2" stroke-linejoin="round"/>
<path d="M9.16675 22.9166V30.25" stroke="#737373" stroke-width="2" stroke-linecap="round"/>
<path d="M9.16675 22.9166H11.0001C13.0251 22.9166 14.6667 24.5583 14.6667 26.5833C14.6667 28.6083 13.0251 30.25 11.0001 30.25H9.16675" stroke="#737373" stroke-width="2" stroke-linecap="round" stroke-linejoin="round"/>
<path d="M22 30.25C23.5188 30.25 24.75 28.6083 24.75 26.5833C24.75 24.5582 23.5188 22.9166 22 22.9166C20.4812 22.9166 19.25 24.5582 19.25 26.5833C19.25 28.6083 20.4812 30.25 22 30.25Z" stroke="#737373" stroke-width="2" stroke-linecap="round" stroke-linejoin="round"/>
<path d="M34.8333 22.9166H32.9999C30.9749 22.9166 29.3333 24.5583 29.3333 26.5833C29.3333 28.6083 30.9749 30.25 32.9999 30.25H34.8333" stroke="#737373" stroke-width="2" stroke-linecap="round" stroke-linejoin="round"/>
</svg>
