<svg width="44" height="44" viewBox="0 0 44 44" fill="none" xmlns="http://www.w3.org/2000/svg">
<path d="M11.0001 38.0142C10.4419 37.6919 9.9785 37.2282 9.65664 36.6697C9.33477 36.1113 9.1658 35.4779 9.16675 34.8333V9.16667C9.16675 8.19421 9.55306 7.26158 10.2407 6.57394C10.9283 5.88631 11.861 5.5 12.8334 5.5H25.6668L34.8334 14.6667V34.8333C34.8334 35.8058 34.4471 36.7384 33.7595 37.4261C33.0718 38.1137 32.1392 38.5 31.1668 38.5H29.3334" stroke="#737373" stroke-width="2.75" stroke-linecap="round" stroke-linejoin="round"/>
<path d="M20.1667 31.1666C21.1391 31.1666 22.0718 31.5529 22.7594 32.2406C23.447 32.9282 23.8333 33.8608 23.8333 34.8333V38.5C23.8333 38.9862 23.6402 39.4525 23.2964 39.7963C22.9525 40.1401 22.4862 40.3333 22 40.3333H18.3333C17.8471 40.3333 17.3808 40.1401 17.037 39.7963C16.6932 39.4525 16.5 38.9862 16.5 38.5V34.8333C16.5 33.8608 16.8863 32.9282 17.5739 32.2406C18.2616 31.5529 19.1942 31.1666 20.1667 31.1666Z" stroke="#737373" stroke-width="2.75" stroke-linecap="round" stroke-linejoin="round"/>
<path d="M20.1666 9.16663H18.3333" stroke="#737373" stroke-width="2.75" stroke-linecap="round" stroke-linejoin="round"/>
<path d="M23.8333 12.8334H22" stroke="#737373" stroke-width="2.75" stroke-linecap="round" stroke-linejoin="round"/>
<path d="M20.1666 16.5H18.3333" stroke="#737373" stroke-width="2.75" stroke-linecap="round" stroke-linejoin="round"/>
<path d="M23.8333 20.1666H22" stroke="#737373" stroke-width="2.75" stroke-linecap="round" stroke-linejoin="round"/>
<path d="M20.1666 23.8334H18.3333" stroke="#737373" stroke-width="2.75" stroke-linecap="round" stroke-linejoin="round"/>
<path d="M23.8333 27.5H22" stroke="#737373" stroke-width="2.75" stroke-linecap="round" stroke-linejoin="round"/>
</svg>
