<svg width="44" height="44" viewBox="0 0 44 44" fill="none" xmlns="http://www.w3.org/2000/svg">
<path d="M9.16675 34.8334V40.3334H34.8334V34.8334" stroke="#737373" stroke-width="2" stroke-linecap="round" stroke-linejoin="round"/>
<path d="M34.8334 18.3333V12.8333L27.5001 3.66663H9.16675V18.3333" stroke="#737373" stroke-width="2" stroke-linecap="round" stroke-linejoin="round"/>
<path d="M25.6667 3.66663V12.8333H34.8334" stroke="#737373" stroke-width="2" stroke-linecap="round" stroke-linejoin="round"/>
<path d="M14.6667 11H18.3334" stroke="#737373" stroke-width="2" stroke-linecap="round"/>
<path d="M38.5001 18.3334H5.50008C4.48756 18.3334 3.66675 19.1542 3.66675 20.1667V33C3.66675 34.0126 4.48756 34.8334 5.50008 34.8334H38.5001C39.5126 34.8334 40.3334 34.0126 40.3334 33V20.1667C40.3334 19.1542 39.5126 18.3334 38.5001 18.3334Z" stroke="#737373" stroke-width="2" stroke-linejoin="round"/>
<path d="M10.0833 22.9166H15.5833L10.0833 30.25H15.5833" stroke="#737373" stroke-width="2" stroke-linecap="round" stroke-linejoin="round"/>
<path d="M22 22.9166V30.25" stroke="#737373" stroke-width="2" stroke-linecap="round"/>
<path d="M28.4167 22.9166V30.25" stroke="#737373" stroke-width="2" stroke-linecap="round"/>
<path d="M28.4167 22.9166H31.6251C32.8907 22.9166 33.9167 23.9427 33.9167 25.2083C33.9167 26.4739 32.8907 27.5 31.6251 27.5H28.4167" stroke="#737373" stroke-width="2" stroke-linecap="round" stroke-linejoin="round"/>
</svg>
