<svg width="44" height="44" viewBox="0 0 44 44" fill="none" xmlns="http://www.w3.org/2000/svg">
<path fill-rule="evenodd" clip-rule="evenodd" d="M22.0001 40.3333C32.1253 40.3333 40.3334 32.1252 40.3334 22C40.3334 11.8747 32.1253 3.66663 22.0001 3.66663C11.8749 3.66663 3.66675 11.8747 3.66675 22C3.66675 32.1252 11.8749 40.3333 22.0001 40.3333Z" stroke="#737373" stroke-width="2.75" stroke-linecap="round" stroke-linejoin="round"/>
<path d="M22.0001 21.0833C24.5314 21.0833 26.5834 19.0312 26.5834 16.5C26.5834 13.9687 24.5314 11.9166 22.0001 11.9166C19.4688 11.9166 17.4167 13.9687 17.4167 16.5C17.4167 19.0312 19.4688 21.0833 22.0001 21.0833Z" stroke="#737373" stroke-width="2.75" stroke-linejoin="round"/>
<path d="M9.18677 35.1377C9.50183 30.3606 13.4764 26.5834 18.3333 26.5834H25.6666C30.5171 26.5834 34.4876 30.3506 34.8119 35.1187" stroke="#737373" stroke-width="2.75" stroke-linecap="round" stroke-linejoin="round"/>
</svg>
