<svg width="44" height="44" viewBox="0 0 44 44" fill="none" xmlns="http://www.w3.org/2000/svg">
<path d="M12.8333 33C10.5458 33 8.35196 32.1308 6.73446 30.5836C5.11695 29.0364 4.20825 26.938 4.20825 24.75C4.20825 22.5619 5.11695 20.4635 6.73446 18.9163C8.35196 17.3691 10.5458 16.5 12.8333 16.5C13.3735 14.0931 14.954 11.978 17.227 10.6199C18.3525 9.94748 19.6141 9.48112 20.9398 9.24749C22.2656 9.01386 23.6295 9.01753 24.9536 9.25828C26.2778 9.49904 27.5363 9.97217 28.6573 10.6507C29.7783 11.3292 30.7398 12.1997 31.487 13.2127C32.2341 14.2256 32.7523 15.361 33.0119 16.5542C33.2715 17.7474 33.2674 18.9749 32.9999 20.1666H34.8333C36.5351 20.1666 38.1672 20.8427 39.3705 22.046C40.5739 23.2494 41.2499 24.8815 41.2499 26.5833C41.2499 28.2851 40.5739 29.9172 39.3705 31.1206C38.1672 32.3239 36.5351 33 34.8333 33H12.8333Z" stroke="#737373" stroke-width="2.75" stroke-linecap="round" stroke-linejoin="round"/>
</svg>
