<svg width="120" height="80" viewBox="0 0 120 80" fill="none" xmlns="http://www.w3.org/2000/svg">
    <g clip-path="url(#clip0_180_2057)">
        <path
            d="M21.8041 68.6471L25.7732 75.4875C26.5979 76.9275 27.7835 78.059 29.1753 78.8819L43.3505 54.4007H15C15 55.9951 15.4124 57.5894 16.2371 59.0295L21.8041 68.6471Z"
            fill="#0066DA" />
        <path
            d="M60 25.5993L45.8247 1.1181C44.433 1.941 43.2474 3.07249 42.4227 4.51256L16.2371 49.772C15.4275 51.181 15.0011 52.7766 15 54.4008H43.3505L60 25.5993Z"
            fill="#00AC47" />
        <path
            d="M90.8248 78.8819C92.2165 78.059 93.4021 76.9275 94.2268 75.4875L95.8763 72.6587L103.763 59.0295C104.588 57.5894 105 55.9951 105 54.4007H76.6475L82.6805 66.2299L90.8248 78.8819Z"
            fill="#EA4335" />
        <path
            d="M60 25.5993L74.1752 1.11808C72.7835 0.295177 71.1855 -0.116272 69.536 -0.116272H50.4639C48.8144 -0.116272 47.2165 0.346608 45.8247 1.11808L60 25.5993Z"
            fill="#00832D" />
        <path
            d="M76.6495 54.4007H43.3505L29.1753 78.8819C30.567 79.7048 32.165 80.1163 33.8145 80.1163H86.1856C87.8351 80.1163 89.433 79.6534 90.8248 78.8819L76.6495 54.4007Z"
            fill="#2684FC" />
        <path
            d="M90.6701 27.1423L77.5773 4.51256C76.7526 3.07249 75.567 1.941 74.1753 1.1181L60 25.5993L76.6495 54.4008H104.948C104.948 52.8064 104.536 51.212 103.711 49.772L90.6701 27.1423Z"
            fill="#FFBA00" />
    </g>
    <defs>
        <clipPath id="clip0_180_2057">
            <rect width="120" height="80" fill="white" />
        </clipPath>
    </defs>
</svg>