<svg width="44" height="44" viewBox="0 0 44 44" fill="none" xmlns="http://www.w3.org/2000/svg">
<path d="M27.5 14.6666H27.5183" stroke="#737373" stroke-width="2.75" stroke-linecap="round" stroke-linejoin="round"/>
<path d="M31.1666 7.33337H12.8333C9.79569 7.33337 7.33325 9.79581 7.33325 12.8334V31.1667C7.33325 34.2043 9.79569 36.6667 12.8333 36.6667H31.1666C34.2042 36.6667 36.6666 34.2043 36.6666 31.1667V12.8334C36.6666 9.79581 34.2042 7.33337 31.1666 7.33337Z" stroke="#737373" stroke-width="2.75" stroke-linecap="round" stroke-linejoin="round"/>
<path d="M7.33325 27.5L14.6666 20.1667C15.5027 19.3622 16.4511 18.9386 17.4166 18.9386C18.382 18.9386 19.3305 19.3622 20.1666 20.1667L29.3333 29.3334" stroke="#737373" stroke-width="2.75" stroke-linecap="round" stroke-linejoin="round"/>
<path d="M25.6667 25.6667L27.5001 23.8333C28.3362 23.0288 29.2846 22.6052 30.2501 22.6052C31.2155 22.6052 32.164 23.0288 33.0001 23.8333L36.6667 27.5" stroke="#737373" stroke-width="2.75" stroke-linecap="round" stroke-linejoin="round"/>
</svg>
