<svg width="44" height="44" viewBox="0 0 44 44" fill="none" xmlns="http://www.w3.org/2000/svg">
<path d="M9.16675 34.8334V40.3334H34.8334V34.8334" stroke="#737373" stroke-width="2" stroke-linecap="round" stroke-linejoin="round"/>
<path d="M34.8334 18.3333V12.8333L27.5001 3.66663H9.16675V18.3333" stroke="#737373" stroke-width="2" stroke-linecap="round" stroke-linejoin="round"/>
<path d="M25.6667 3.66663V12.8333H34.8334" stroke="#737373" stroke-width="2" stroke-linecap="round" stroke-linejoin="round"/>
<path d="M14.6667 11H18.3334" stroke="#737373" stroke-width="2" stroke-linecap="round"/>
<path d="M38.5001 18.3334H5.50008C4.48756 18.3334 3.66675 19.1542 3.66675 20.1667V33C3.66675 34.0126 4.48756 34.8334 5.50008 34.8334H38.5001C39.5126 34.8334 40.3334 34.0126 40.3334 33V20.1667C40.3334 19.1542 39.5126 18.3334 38.5001 18.3334Z" stroke="#737373" stroke-width="2" stroke-linecap="round" stroke-linejoin="round"/>
<path d="M19.25 22.9166L24.75 30.25" stroke="#737373" stroke-width="2" stroke-linecap="round" stroke-linejoin="round"/>
<path d="M24.75 22.9166L19.25 30.25" stroke="#737373" stroke-width="2" stroke-linecap="round" stroke-linejoin="round"/>
<path d="M11.9167 22.9166V30.25" stroke="#737373" stroke-width="2" stroke-linecap="round" stroke-linejoin="round"/>
<path d="M9.16675 22.9166H11.9167H14.6667" stroke="#737373" stroke-width="2" stroke-linecap="round" stroke-linejoin="round"/>
<path d="M32.0833 22.9166V30.25" stroke="#737373" stroke-width="2" stroke-linecap="round" stroke-linejoin="round"/>
<path d="M29.3333 22.9166H32.0833H34.8333" stroke="#737373" stroke-width="2" stroke-linecap="round" stroke-linejoin="round"/>
</svg>
